<?xml version="1.0" encoding="UTF-8"?>
<svg id="Layer_2" data-name="Layer 2" xmlns="http://www.w3.org/2000/svg" xmlns:xlink="http://www.w3.org/1999/xlink" viewBox="0 0 1000 1000">
  <defs>
    <style>
      .cls-1, .cls-2 {
        fill: none;
      }

      .cls-3 {
        fill: blue;
      }

      .cls-4 {
        fill: #bfff65;
      }

      .cls-2 {
        clip-path: url(#clippath);
      }
    </style>
    <clipPath id="clippath">
      <rect class="cls-1" x="160" y="293.1" width="680" height="381.8"/>
    </clipPath>
  </defs>
  <g id="Layer_1-2" data-name="Layer 1">
    <g>
      <rect class="cls-3" width="1000" height="1000"/>
      <g class="cls-2">
        <path class="cls-4" d="m760.96,415.57l11.83-60.72,12.64,60.72h-24.47Zm-23.31,62.02h27.37v-6.25c-4.87,0-10.44-1.56-10.44-15.37,0-7.04,2.78-23.19,4.29-29.97h29.11l1.51,7.56c1.04,4.95,4.64,21.37,4.64,27.36,0,4.69-1.39,8.08-2.9,9.12-1.39,1.04-3.71,1.3-6.38,1.3v6.25h44.07v-6.25c-4.29,0-7.42-5.21-9.63-13.29-2.2-8.08-4.17-18.24-7.08-31.79l-28.89-128.99h-3.94l-28.98,143.58c-3.6,17.98-4.41,28.14-12.76,30.49v6.25Zm-104.09,0h25.4v-6.25c-9.98,0-10.9-9.12-10.9-29.18v-121.95h.23l27.02,157.39h3.83l28.76-157.39h.23v128.2c0,21.11-2.67,22.41-9.86,22.93v6.25h40.13v-6.25c-7.19-.52-9.86-1.82-9.86-22.93v-121.43c0-21.11,2.67-22.41,9.86-22.93v-6.25h-32.01l-20.88,115.44-19.72-115.44h-32.24v6.25c5.8.52,8.93,2.08,8.93,20.07v113.87c0,30.49-3.25,33.35-8.93,33.35v6.25Zm-51.67-156.61c0-9.64.46-14.07,6.38-14.07,9.86,0,14.85,16.42,14.85,38.04,0,28.4-8.23,39.09-18.79,39.09h-2.44v-63.06Zm-31.43,156.61h41.29v-6.25c-7.19-.52-9.86-1.82-9.86-22.93v-55.24h3.48l22.27,84.43h26.91v-6.25c-1.62,0-2.78-.78-4.64-5.47-1.86-4.69-4.29-13.03-8.7-28.4l-14.03-49.25c9.16-5.73,18.44-21.11,18.44-44.56s-7.77-37.78-17.17-42.73c-5.45-2.87-18.79-3.13-31.66-3.13h-26.33v6.25c7.19.52,9.86,1.82,9.86,22.93v121.43c0,21.11-2.67,22.41-9.86,22.93v6.25Zm-88.2-89.9c0,53.94,17.28,94.59,41.99,94.59s41.99-40.65,41.99-94.59-17.28-94.59-41.99-94.59-41.99,40.65-41.99,94.59m23.31,2.35c0-28.66.23-87.82,18.67-87.82s18.67,59.15,18.67,87.82-.23,83.12-18.67,83.12-18.67-53.42-18.67-83.12m-92.15,87.55h44.31v-6.25c-9.63-.52-12.87-4.43-12.87-22.67v-60.98c12.76,0,17.05,13.29,18.56,39.87h2.78v-88.86h-2.78c-1.51,26.58-5.8,39.87-18.56,39.87v-58.11c0-9.12.93-12.25,4.64-12.25h4.52c14.85,0,21.69,8.08,24.59,40.39h2.78l-.93-50.81h-67.04v6.25c7.19.52,9.86,1.82,9.86,22.93v121.43c0,21.11-2.67,22.41-9.86,22.93v6.25Zm-51.9-156.61c0-9.64.46-14.07,6.38-14.07,9.86,0,14.85,16.42,14.85,38.04,0,28.4-8.23,39.09-18.79,39.09h-2.44v-63.06Zm-31.43,156.61h41.29v-6.25c-7.19-.52-9.86-1.82-9.86-22.93v-55.24h3.48l22.27,84.43h26.91v-6.25c-1.62,0-2.78-.78-4.64-5.47-1.86-4.69-4.29-13.03-8.7-28.4l-14.03-49.25c9.16-5.73,18.44-21.11,18.44-44.56s-7.77-37.78-17.16-42.73c-5.45-2.87-18.79-3.13-31.66-3.13h-26.33v6.25c7.19.52,9.86,1.82,9.86,22.93v121.43c0,21.11-2.67,22.41-9.86,22.93v6.25Zm-77.99,0h70.52l4.52-54.46-2.78-1.56c-.46,3.91-2.55,15.89-5.92,24.75-7.77,20.59-13.69,20.85-25.63,20.85-8.82,0-9.28-3.39-9.28-22.41v-57.07c12.76,0,17.05,13.29,18.56,39.87h2.78v-88.86h-2.78c-1.51,26.58-5.8,39.87-18.56,39.87v-56.81c0-13.03,1.51-13.55,7.19-13.55h7.42c14.15,0,19.6,13.81,20.88,40.39h2.78v-50.81h-69.71v6.25c7.19.52,9.86,1.82,9.86,22.93v121.43c0,21.11-2.67,22.41-9.86,22.93v6.25Zm-40.18-157.65c0-9.38,1.16-11.72,5.34-11.72,9.97,0,11.13,19.8,11.13,38.3,0,26.32-2.55,40.91-14.5,40.91h-1.97v-67.49Zm-31.43,157.65h41.29v-6.25c-7.19-.52-9.86-1.82-9.86-22.93v-50.55h6.84c7.65,0,14.61-2.87,19.6-9.12,6.61-8.34,11.6-22.15,11.6-43.52,0-17.72-3.13-29.71-9.86-38.83-5.92-8.08-15.66-8.6-25.75-8.6h-33.87v6.25c7.19.52,9.86,1.82,9.86,22.93v121.43c0,21.11-2.67,22.41-9.86,22.93v6.25Z"/>
        <path class="cls-4" d="m806.38,582.97c5.74.51,12.38,8.43,16.91,23.24,3.12,10.21,3.82,16.85,3.82,29.88,0,15.58-4.43,25.28-8.66,25.28-1.61,0-3.12-.51-4.43-2.81-5.94-10.47-8.15-22.73-13.99-22.73-3.63,0-6.14,6.13-6.14,15.32,0,16.34,8.05,23.75,13.39,23.75,7.95,0,16.01-5.62,21.04-15.32,5.84-11.24,11.68-26.05,11.68-51.07s-4.53-41.11-13.69-47.75v-2.04c5.64-5.62,9.26-18.13,9.26-33.71,0-21.45-8.35-32.94-16.01-32.94-11.58,0-19.33,12.77-23.96,38.56l2.22,3.32c2.82-12.77,6.44-19.66,12.28-19.66s9.76,12.77,9.76,26.81c0,21.2-5.44,33.45-13.49,35.75v6.13Zm-57.68,88.61h42.68l5.24-56.18h-2.52c-2.22,16.09-3.83,18.9-10.27,18.9h-19.23c-.5,0-.71-.77-.71-1.53s.3-1.79.91-3.07l14.6-33.71c6.94-16.09,13.19-32.69,13.19-58.22,0-27.32-8.05-45.71-18.62-45.71-13.19,0-19.83,21.96-24.36,50.56l2.32,3.58c2.72-13.54,6.24-23.75,12.68-23.75,7.75,0,12.28,13.28,12.28,32.43,0,21.96-8.05,48.78-13.29,64.86l-14.9,46.22v5.62Zm-43.29-88.1c0,37.79,6.54,91.42,22.95,91.42s22.95-53.63,22.95-91.42-6.54-91.42-22.95-91.42-22.95,53.63-22.95,91.42m16.71-37.03c0-30.64.2-46.99,6.24-46.99s6.24,16.34,6.24,46.99v74.06c0,30.64-.2,46.99-6.24,46.99s-6.24-16.34-6.24-46.99v-74.06Zm-62.01,125.13h42.68l5.24-56.18h-2.52c-2.22,16.09-3.83,18.9-10.27,18.9h-19.23c-.5,0-.71-.77-.71-1.53s.3-1.79.91-3.07l14.6-33.71c6.95-16.09,13.19-32.69,13.19-58.22,0-27.32-8.05-45.71-18.62-45.71-13.19,0-19.83,21.96-24.36,50.56l2.32,3.58c2.72-13.54,6.24-23.75,12.68-23.75,7.75,0,12.28,13.28,12.28,32.43,0,21.96-8.05,48.78-13.29,64.86l-14.9,46.22v5.62Zm-78.22,0h57.99l3.72-57.71-2.42-2.04c-3.12,28.6-9.66,49.54-21.75,49.54-8.56,0-10.27-2.04-10.27-17.37v-120.02c0-20.68,2.31-21.96,8.56-22.47v-6.13h-35.84v6.13c6.24.51,8.56,1.79,8.56,22.47v119c0,20.69-2.31,21.96-8.56,22.47v6.13Zm-58.49-60.78l10.27-59.5,10.97,59.5h-21.24Zm-20.24,60.78h23.76v-6.13c-4.23,0-9.06-1.53-9.06-15.07,0-6.9,2.42-22.73,3.72-29.37h25.27l1.31,7.41c.91,4.85,4.03,20.94,4.03,26.81,0,4.6-1.21,7.92-2.52,8.94-1.21,1.02-3.22,1.28-5.54,1.28v6.13h38.25v-6.13c-3.73,0-6.44-5.11-8.36-13.02-1.91-7.92-3.62-17.88-6.14-31.16l-24.97-125.82h-3.42l-25.27,140.12c-3.12,17.62-3.83,27.58-11.07,29.88v6.13Zm-33.72,0h35.84v-6.13c-6.24-.51-8.56-1.79-8.56-22.47v-119c0-20.68,2.32-21.96,8.56-22.47v-6.13h-35.84v6.13c6.24.51,8.56,1.79,8.56,22.47v119c0,20.69-2.32,21.96-8.56,22.47v6.13Zm-72.28,0h24.77v-6.13c-6.65.26-11.07-2.81-11.07-24.26v-108.79l51.14,139.61h2.42v-146.25c0-15.58,2.11-23.49,7.65-24.26v-6.13h-22.95v6.13c6.14,0,10.47,2.81,10.47,24.26v74.82l-37.15-105.21h-25.27v6.13c3.22.25,4.23.25,8.86,16.09v122.58c0,16.09-2.21,24.52-8.86,25.28v6.13Zm-72.28,0h24.76v-6.13c-6.64.26-11.07-2.81-11.07-24.26v-108.79l51.14,139.61h2.42v-146.25c0-15.58,2.11-23.49,7.65-24.26v-6.13h-22.95v6.13c6.14,0,10.47,2.81,10.47,24.26v74.82l-37.15-105.21h-25.27v6.13c3.22.25,4.23.25,8.86,16.09v122.58c0,16.09-2.22,24.52-8.86,25.28v6.13Zm-65.13,0h61.21l3.92-53.37-2.42-1.53c-.4,3.83-2.22,15.58-5.13,24.26-6.74,20.17-11.88,20.43-22.25,20.43-7.65,0-8.05-3.32-8.05-21.96v-55.93c11.07,0,14.8,13.02,16.11,39.07h2.42v-87.08h-2.42c-1.31,26.05-5.03,39.07-16.11,39.07v-55.67c0-12.77,1.31-13.28,6.24-13.28h6.44c12.28,0,17.01,13.54,18.12,39.58h2.42v-49.8h-60.5v6.13c6.24.51,8.56,1.79,8.56,22.47v119c0,20.69-2.32,21.96-8.56,22.47v6.13Zm-34.63,0h35.84v-6.13c-6.24-.51-8.56-1.79-8.56-22.47v-119c0-20.68,2.31-21.96,8.56-22.47v-6.13h-35.84v6.13c6.24.51,8.56,1.79,8.56,22.47v119c0,20.69-2.31,21.96-8.56,22.47v6.13Zm-65.13,0h28.49c2.72,0,8.05,0,11.38-.77,13.79-3.06,24.76-14.81,24.76-49.54,0-15.83-5.23-30.39-10.17-36.01-3.42-3.83-6.95-6.9-10.57-7.92v-.51c1.81-.77,3.83-2.04,6.64-5.36,5.84-6.9,9.86-18.64,9.86-35.5s-2.52-23.49-5.33-29.62c-4.73-10.47-13.29-10.98-22.75-10.98h-32.31v6.13c6.24.51,8.56,1.79,8.56,22.47v119c0,20.69-2.31,21.96-8.56,22.47v6.13Zm27.28-159.6c0-4.34.7-7.66,3.83-7.66,1.51,0,4.53.26,6.54,4.85,3.12,6.9,4.03,18.39,4.03,30.39,0,28.6-5.44,34.22-10.47,34.22h-3.93v-61.8Zm0,70.74h4.33c6.85,0,13.49,9.7,13.49,40.6,0,22.47-2.52,39.33-12.79,39.33-4.53,0-5.03-1.28-5.03-17.87v-62.05Z"/>
      </g>
    </g>
  </g>
</svg>